<svg class="card-frame" xmlns="http://www.w3.org/2000/svg" xmlns:xlink="http://www.w3.org/1999/xlink" width="406" viewBox="0 0 304.5 305.25" height="407" preserveAspectRatio="xMidYMid meet"><defs><clipPath id="080f7021a4"><path d="M 0.125 0 L 303.878906 0 L 303.878906 304.5 L 0.125 304.5 Z M 0.125 0 " clip-rule="nonzero"/></clipPath><clipPath id="d6c7cda66a"><path d="M 7.761719 5.25 L 303.878906 5.25 L 303.878906 304.5 L 7.761719 304.5 Z M 7.761719 5.25 " clip-rule="nonzero"/></clipPath><clipPath id="723aa25702"><path d="M 280 9 L 303.878906 9 L 303.878906 304.5 L 280 304.5 Z M 280 9 " clip-rule="nonzero"/></clipPath><clipPath id="cca4515eeb"><path d="M 7.761719 10.875 L 20.292969 10.875 L 20.292969 304.5 L 7.761719 304.5 Z M 7.761719 10.875 " clip-rule="nonzero"/></clipPath><clipPath id="e07e505129"><path d="M 110 252 L 166 252 L 166 304.5 L 110 304.5 Z M 110 252 " clip-rule="nonzero"/></clipPath><clipPath id="899531c961"><path d="M 139 252 L 195 252 L 195 304.5 L 139 304.5 Z M 139 252 " clip-rule="nonzero"/></clipPath><clipPath id="721e6998c0"><path d="M 129 5.25 L 164 5.25 L 164 47 L 129 47 Z M 129 5.25 " clip-rule="nonzero"/></clipPath><clipPath id="3f2dbbbbd3"><path d="M 137 5.25 L 172 5.25 L 172 47 L 137 47 Z M 137 5.25 " clip-rule="nonzero"/></clipPath><clipPath id="a0eb6b025d"><path d="M 60 226 L 161 226 L 161 304.5 L 60 304.5 Z M 60 226 " clip-rule="nonzero"/></clipPath><clipPath id="686494bb4b"><path d="M 143 228 L 240 228 L 240 304.5 L 143 304.5 Z M 143 228 " clip-rule="nonzero"/></clipPath><clipPath id="e151f10fda"><path d="M 67 5.25 L 164 5.25 L 164 62 L 67 62 Z M 67 5.25 " clip-rule="nonzero"/></clipPath><clipPath id="8d4528caef"><path d="M 136 5.25 L 233 5.25 L 233 62 L 136 62 Z M 136 5.25 " clip-rule="nonzero"/></clipPath><clipPath id="0262bf7f5b"><path d="M 209.492188 171.59375 L 209.769531 171.59375 L 209.769531 171.851562 L 209.492188 171.851562 Z M 209.492188 171.59375 " clip-rule="nonzero"/></clipPath><clipPath id="ff296698a7"><path d="M 209.753906 171.78125 C 209.226562 171.960938 209.695312 171.609375 209.695312 171.609375 " clip-rule="nonzero"/></clipPath><clipPath id="dc32d14e33"><path d="M 209.753906 171.78125 C 209.226562 171.960938 209.695312 171.609375 209.695312 171.609375 " clip-rule="nonzero"/></clipPath><clipPath id="941d7e98e6"><path d="M 209.609375 171.945312 L 209.875 171.945312 L 209.875 172.207031 L 209.609375 172.207031 Z M 209.609375 171.945312 " clip-rule="nonzero"/></clipPath><clipPath id="fec8ea67e4"><path d="M 209.871094 172.136719 C 209.34375 172.3125 209.8125 171.960938 209.8125 171.960938 " clip-rule="nonzero"/></clipPath><clipPath id="84dbf39147"><path d="M 209.871094 172.136719 C 209.34375 172.3125 209.8125 171.960938 209.8125 171.960938 " clip-rule="nonzero"/></clipPath><clipPath id="91b1f17132"><path d="M 209.492188 171.59375 L 209.769531 171.59375 L 209.769531 171.851562 L 209.492188 171.851562 Z M 209.492188 171.59375 " clip-rule="nonzero"/></clipPath><clipPath id="63c751c5bb"><path d="M 209.753906 171.78125 C 209.226562 171.960938 209.695312 171.609375 209.695312 171.609375 " clip-rule="nonzero"/></clipPath><clipPath id="01d37cd970"><path d="M 209.753906 171.78125 C 209.226562 171.960938 209.695312 171.609375 209.695312 171.609375 " clip-rule="nonzero"/></clipPath><clipPath id="2ec22623b1"><path d="M 88.023438 171.316406 L 90.542969 171.316406 L 90.542969 173.839844 L 88.023438 173.839844 Z M 88.023438 171.316406 " clip-rule="nonzero"/></clipPath><clipPath id="8a70d64b2e"><path d="M 89.285156 171.316406 C 88.589844 171.316406 88.023438 171.878906 88.023438 172.574219 C 88.023438 173.273438 88.589844 173.839844 89.285156 173.839844 C 89.980469 173.839844 90.542969 173.273438 90.542969 172.574219 C 90.542969 171.878906 89.980469 171.316406 89.285156 171.316406 Z M 89.285156 171.316406 " clip-rule="nonzero"/></clipPath><clipPath id="823f4ba510"><path d="M 89.285156 171.316406 C 88.589844 171.316406 88.023438 171.878906 88.023438 172.574219 C 88.023438 173.273438 88.589844 173.839844 89.285156 173.839844 C 89.980469 173.839844 90.542969 173.273438 90.542969 172.574219 C 90.542969 171.878906 89.980469 171.316406 89.285156 171.316406 Z M 89.285156 171.316406 " clip-rule="nonzero"/></clipPath><clipPath id="e138a583ef"><path d="M 207.820312 170.667969 L 210.566406 170.667969 L 210.566406 173.421875 L 207.820312 173.421875 Z M 207.820312 170.667969 " clip-rule="nonzero"/></clipPath><clipPath id="708c6ccb82"><path d="M 209.195312 170.667969 C 208.4375 170.667969 207.820312 171.285156 207.820312 172.042969 C 207.820312 172.804688 208.4375 173.421875 209.195312 173.421875 C 209.953125 173.421875 210.566406 172.804688 210.566406 172.042969 C 210.566406 171.285156 209.953125 170.667969 209.195312 170.667969 Z M 209.195312 170.667969 " clip-rule="nonzero"/></clipPath><clipPath id="f2acf54987"><path d="M 209.195312 170.667969 C 208.4375 170.667969 207.820312 171.285156 207.820312 172.042969 C 207.820312 172.804688 208.4375 173.421875 209.195312 173.421875 C 209.953125 173.421875 210.566406 172.804688 210.566406 172.042969 C 210.566406 171.285156 209.953125 170.667969 209.195312 170.667969 Z M 209.195312 170.667969 " clip-rule="nonzero"/></clipPath><clipPath id="8e9f42523a"><path d="M 87.910156 142.863281 L 90.429688 142.863281 L 90.429688 145.386719 L 87.910156 145.386719 Z M 87.910156 142.863281 " clip-rule="nonzero"/></clipPath><clipPath id="d5aaa50d5e"><path d="M 89.167969 142.863281 C 88.472656 142.863281 87.910156 143.425781 87.910156 144.125 C 87.910156 144.824219 88.472656 145.386719 89.167969 145.386719 C 89.863281 145.386719 90.429688 144.824219 90.429688 144.125 C 90.429688 143.425781 89.863281 142.863281 89.167969 142.863281 Z M 89.167969 142.863281 " clip-rule="nonzero"/></clipPath><clipPath id="c0db540ec6"><path d="M 89.167969 142.863281 C 88.472656 142.863281 87.910156 143.425781 87.910156 144.125 C 87.910156 144.824219 88.472656 145.386719 89.167969 145.386719 C 89.863281 145.386719 90.429688 144.824219 90.429688 144.125 C 90.429688 143.425781 89.863281 142.863281 89.167969 142.863281 Z M 89.167969 142.863281 " clip-rule="nonzero"/></clipPath><clipPath id="22fdf37bfc"><path d="M 218.53125 138.113281 L 221.050781 138.113281 L 221.050781 140.640625 L 218.53125 140.640625 Z M 218.53125 138.113281 " clip-rule="nonzero"/></clipPath><clipPath id="2ade944497"><path d="M 219.792969 138.113281 C 219.097656 138.113281 218.53125 138.679688 218.53125 139.378906 C 218.53125 140.074219 219.097656 140.640625 219.792969 140.640625 C 220.488281 140.640625 221.050781 140.074219 221.050781 139.378906 C 221.050781 138.679688 220.488281 138.113281 219.792969 138.113281 Z M 219.792969 138.113281 " clip-rule="nonzero"/></clipPath><clipPath id="c551f7868b"><path d="M 219.792969 138.113281 C 219.097656 138.113281 218.53125 138.679688 218.53125 139.378906 C 218.53125 140.074219 219.097656 140.640625 219.792969 140.640625 C 220.488281 140.640625 221.050781 140.074219 221.050781 139.378906 C 221.050781 138.679688 220.488281 138.113281 219.792969 138.113281 Z M 219.792969 138.113281 " clip-rule="nonzero"/></clipPath><clipPath id="fbcae73ea1"><path d="M 122.3125 264.90625 L 124.832031 264.90625 L 124.832031 267.429688 L 122.3125 267.429688 Z M 122.3125 264.90625 " clip-rule="nonzero"/></clipPath><clipPath id="850771f41b"><path d="M 123.574219 264.90625 C 122.875 264.90625 122.3125 265.472656 122.3125 266.167969 C 122.3125 266.863281 122.875 267.429688 123.574219 267.429688 C 124.269531 267.429688 124.832031 266.863281 124.832031 266.167969 C 124.832031 265.472656 124.269531 264.90625 123.574219 264.90625 Z M 123.574219 264.90625 " clip-rule="nonzero"/></clipPath><clipPath id="92b964148e"><path d="M 123.574219 264.90625 C 122.875 264.90625 122.3125 265.472656 122.3125 266.167969 C 122.3125 266.863281 122.875 267.429688 123.574219 267.429688 C 124.269531 267.429688 124.832031 266.863281 124.832031 266.167969 C 124.832031 265.472656 124.269531 264.90625 123.574219 264.90625 Z M 123.574219 264.90625 " clip-rule="nonzero"/></clipPath><clipPath id="f4a7632789"><path d="M 179.777344 264.90625 L 182.292969 264.90625 L 182.292969 267.429688 L 179.777344 267.429688 Z M 179.777344 264.90625 " clip-rule="nonzero"/></clipPath><clipPath id="59e8087229"><path d="M 181.035156 264.90625 C 180.339844 264.90625 179.777344 265.472656 179.777344 266.167969 C 179.777344 266.863281 180.339844 267.429688 181.035156 267.429688 C 181.730469 267.429688 182.292969 266.863281 182.292969 266.167969 C 182.292969 265.472656 181.730469 264.90625 181.035156 264.90625 Z M 181.035156 264.90625 " clip-rule="nonzero"/></clipPath><clipPath id="aba887fe56"><path d="M 181.035156 264.90625 C 180.339844 264.90625 179.777344 265.472656 179.777344 266.167969 C 179.777344 266.863281 180.339844 267.429688 181.035156 267.429688 C 181.730469 267.429688 182.292969 266.863281 182.292969 266.167969 C 182.292969 265.472656 181.730469 264.90625 181.035156 264.90625 Z M 181.035156 264.90625 " clip-rule="nonzero"/></clipPath><clipPath id="1107ce2d91"><path d="M 141.40625 31.167969 L 143.921875 31.167969 L 143.921875 33.695312 L 141.40625 33.695312 Z M 141.40625 31.167969 " clip-rule="nonzero"/></clipPath><clipPath id="e6b6f61a77"><path d="M 142.664062 31.167969 C 141.964844 31.167969 141.40625 31.734375 141.40625 32.433594 C 141.40625 33.128906 141.964844 33.695312 142.664062 33.695312 C 143.359375 33.695312 143.921875 33.128906 143.921875 32.433594 C 143.921875 31.734375 143.359375 31.167969 142.664062 31.167969 Z M 142.664062 31.167969 " clip-rule="nonzero"/></clipPath><clipPath id="b7a6d39909"><path d="M 142.664062 31.167969 C 141.964844 31.167969 141.40625 31.734375 141.40625 32.433594 C 141.40625 33.128906 141.964844 33.695312 142.664062 33.695312 C 143.359375 33.695312 143.921875 33.128906 143.921875 32.433594 C 143.921875 31.734375 143.359375 31.167969 142.664062 31.167969 Z M 142.664062 31.167969 " clip-rule="nonzero"/></clipPath><clipPath id="bd7eb1785f"><path d="M 156.746094 31.167969 L 159.265625 31.167969 L 159.265625 33.695312 L 156.746094 33.695312 Z M 156.746094 31.167969 " clip-rule="nonzero"/></clipPath><clipPath id="7eb836db0f"><path d="M 158.007812 31.167969 C 157.3125 31.167969 156.746094 31.734375 156.746094 32.433594 C 156.746094 33.128906 157.3125 33.695312 158.007812 33.695312 C 158.703125 33.695312 159.265625 33.128906 159.265625 32.433594 C 159.265625 31.734375 158.703125 31.167969 158.007812 31.167969 Z M 158.007812 31.167969 " clip-rule="nonzero"/></clipPath><clipPath id="f815e9f54e"><path d="M 158.007812 31.167969 C 157.3125 31.167969 156.746094 31.734375 156.746094 32.433594 C 156.746094 33.128906 157.3125 33.695312 158.007812 33.695312 C 158.703125 33.695312 159.265625 33.128906 159.265625 32.433594 C 159.265625 31.734375 158.703125 31.167969 158.007812 31.167969 Z M 158.007812 31.167969 " clip-rule="nonzero"/></clipPath><clipPath id="d1b18e29d6"><path d="M 128.199219 25.75 L 130.71875 25.75 L 130.71875 28.277344 L 128.199219 28.277344 Z M 128.199219 25.75 " clip-rule="nonzero"/></clipPath><clipPath id="e020858ce3"><path d="M 129.457031 25.75 C 128.765625 25.75 128.199219 26.316406 128.199219 27.015625 C 128.199219 27.710938 128.765625 28.277344 129.457031 28.277344 C 130.152344 28.277344 130.71875 27.710938 130.71875 27.015625 C 130.71875 26.316406 130.152344 25.75 129.457031 25.75 Z M 129.457031 25.75 " clip-rule="nonzero"/></clipPath><clipPath id="0371ea5d5e"><path d="M 129.457031 25.75 C 128.765625 25.75 128.199219 26.316406 128.199219 27.015625 C 128.199219 27.710938 128.765625 28.277344 129.457031 28.277344 C 130.152344 28.277344 130.71875 27.710938 130.71875 27.015625 C 130.71875 26.316406 130.152344 25.75 129.457031 25.75 Z M 129.457031 25.75 " clip-rule="nonzero"/></clipPath><clipPath id="2930fdd5d9"><path d="M 169.132812 25.75 L 171.648438 25.75 L 171.648438 28.277344 L 169.132812 28.277344 Z M 169.132812 25.75 " clip-rule="nonzero"/></clipPath><clipPath id="40b4afab72"><path d="M 170.390625 25.75 C 169.695312 25.75 169.132812 26.316406 169.132812 27.015625 C 169.132812 27.710938 169.695312 28.277344 170.390625 28.277344 C 171.085938 28.277344 171.648438 27.710938 171.648438 27.015625 C 171.648438 26.316406 171.085938 25.75 170.390625 25.75 Z M 170.390625 25.75 " clip-rule="nonzero"/></clipPath><clipPath id="c2b04a5268"><path d="M 170.390625 25.75 C 169.695312 25.75 169.132812 26.316406 169.132812 27.015625 C 169.132812 27.710938 169.695312 28.277344 170.390625 28.277344 C 171.085938 28.277344 171.648438 27.710938 171.648438 27.015625 C 171.648438 26.316406 171.085938 25.75 170.390625 25.75 Z M 170.390625 25.75 " clip-rule="nonzero"/></clipPath><clipPath id="0b8184d2f8"><path d="M 151.261719 25.863281 L 153.78125 25.863281 L 153.78125 28.386719 L 151.261719 28.386719 Z M 151.261719 25.863281 " clip-rule="nonzero"/></clipPath><clipPath id="7925c5a6aa"><path d="M 152.523438 25.863281 C 151.828125 25.863281 151.261719 26.429688 151.261719 27.125 C 151.261719 27.820312 151.828125 28.386719 152.523438 28.386719 C 153.21875 28.386719 153.78125 27.820312 153.78125 27.125 C 153.78125 26.429688 153.21875 25.863281 152.523438 25.863281 Z M 152.523438 25.863281 " clip-rule="nonzero"/></clipPath><clipPath id="2b1fe8b14b"><path d="M 152.523438 25.863281 C 151.828125 25.863281 151.261719 26.429688 151.261719 27.125 C 151.261719 27.820312 151.828125 28.386719 152.523438 28.386719 C 153.21875 28.386719 153.78125 27.820312 153.78125 27.125 C 153.78125 26.429688 153.21875 25.863281 152.523438 25.863281 Z M 152.523438 25.863281 " clip-rule="nonzero"/></clipPath></defs><g clip-path="url(#080f7021a4)"></g><g clip-path="url(#d6c7cda66a)"></g><g clip-path="url(#723aa25702)"><g transform="matrix(0.575897, 0, 0, 0.577208, 279.837656, 8.596125)"></g></g><g clip-path="url(#cca4515eeb)"></g><path stroke-linecap="butt" transform="matrix(0, -0.586954, 0.58564, 0, 218.707334, 139.916395)" fill="none" stroke-linejoin="miter" d="M -0.00268053 2.000501 L 137.318974 2.000501 " stroke="var(--frame, #f16800)" stroke-width="4" stroke-opacity="1" stroke-miterlimit="4"/><path stroke-linecap="butt" transform="matrix(0, -0.586954, 0.58564, 0, 78.582801, 139.916395)" fill="none" stroke-linejoin="miter" d="M -0.00268053 1.999702 L 137.318974 1.999702 " stroke="var(--frame, #f16800)" stroke-width="4" stroke-opacity="1" stroke-miterlimit="4"/><path stroke-linecap="butt" transform="matrix(0, -0.586954, 0.58564, 0, 78.583553, 240.494786)" fill="none" stroke-linejoin="miter" d="M -0.00222721 1.998419 L 109.600871 1.998419 " stroke="var(--frame, #f16800)" stroke-width="4" stroke-opacity="1" stroke-miterlimit="4"/><path stroke-linecap="butt" transform="matrix(0, -0.586954, 0.58564, 0, 218.708124, 240.494786)" fill="none" stroke-linejoin="miter" d="M -0.00222721 1.999152 L 109.600871 1.999152 " stroke="var(--frame, #f16800)" stroke-width="4" stroke-opacity="1" stroke-miterlimit="4"/><path stroke-linecap="butt" transform="matrix(0.00000000102213, -0.586954, 0.58564, 0.00000000102443, 88.051943, 171.91945)" fill="none" stroke-linejoin="miter" d="M -0.00413077 1.999033 L 48.385214 1.999033 " stroke="var(--frame, #f16800)" stroke-width="4" stroke-opacity="1" stroke-miterlimit="4"/><path stroke-linecap="butt" transform="matrix(0, -0.586954, 0.58564, 0, 208.021233, 171.91945)" fill="none" stroke-linejoin="miter" d="M -0.00413077 1.998111 L 48.385214 1.998111 " stroke="var(--frame, #f16800)" stroke-width="4" stroke-opacity="1" stroke-miterlimit="4"/><path stroke-linecap="butt" transform="matrix(0.35202, -0.469085, 0.468034, 0.35281, 201.659797, 261.91194)" fill="none" stroke-linejoin="miter" d="M 1.265395 1.544511 C 17.42673 14.794652 33.582449 14.795434 49.737872 1.542858 " stroke="var(--frame, #f16800)" stroke-width="4" stroke-opacity="1" stroke-miterlimit="4"/><path stroke-linecap="butt" transform="matrix(0.365261, 0.458803, -0.457775, 0.366081, 80.033476, 238.84664)" fill="none" stroke-linejoin="miter" d="M 1.282952 1.53199 C 17.139034 14.780948 32.981218 14.78394 48.832388 1.533625 " stroke="var(--frame, #f16800)" stroke-width="4" stroke-opacity="1" stroke-miterlimit="4"/><path stroke-linecap="butt" transform="matrix(0.574323, -0.114828, 0.114571, 0.575612, 180.806382, 265.016227)" fill="none" stroke-linejoin="miter" d="M -0.000787693 2.000742 C 13.425775 1.998616 26.852338 1.996491 40.277598 2.000891 " stroke="var(--frame, #f16800)" stroke-width="4" stroke-opacity="1" stroke-miterlimit="4"/><g clip-path="url(#e07e505129)"><path stroke-linecap="butt" transform="matrix(0.390553, 0.437376, -0.436396, 0.39143, 124.418629, 265.388114)" fill="none" stroke-linejoin="miter" d="M 0.00232567 1.999703 L 73.6848 1.998719 " stroke="var(--frame, #f16800)" stroke-width="4" stroke-opacity="1" stroke-miterlimit="4"/></g><g clip-path="url(#899531c961)"><path stroke-linecap="butt" transform="matrix(0.390052, -0.437825, 0.436844, 0.390928, 151.449349, 297.610856)" fill="none" stroke-linejoin="miter" d="M -0.000969131 2.00357 L 73.601493 1.999565 " stroke="var(--frame, #f16800)" stroke-width="4" stroke-opacity="1" stroke-miterlimit="4"/></g><path stroke-linecap="butt" transform="matrix(0.567066, 0.146647, -0.146319, 0.568339, 166.972651, 281.145657)" fill="none" stroke-linejoin="miter" d="M -0.0010023 1.998348 L 25.313702 1.9959 " stroke="var(--frame, #f16800)" stroke-width="4" stroke-opacity="1" stroke-miterlimit="4"/><path stroke-linecap="butt" transform="matrix(0.548194, -0.206513, 0.20605, 0.549425, 123.134889, 284.895671)" fill="none" stroke-linejoin="miter" d="M 0.00121639 1.996211 L 25.095992 2.00112 " stroke="var(--frame, #f16800)" stroke-width="4" stroke-opacity="1" stroke-miterlimit="4"/><path stroke-linecap="butt" transform="matrix(0.4579, 0.365923, -0.365103, 0.458928, 90.468987, 258.060456)" fill="none" stroke-linejoin="miter" d="M 0.00162548 2.003404 L 73.829419 1.995597 " stroke="var(--frame, #f16800)" stroke-width="4" stroke-opacity="1" stroke-miterlimit="4"/><path stroke-linecap="butt" transform="matrix(0.43555, -0.392376, 0.391497, 0.436528, 180.251952, 285.119799)" fill="none" stroke-linejoin="miter" d="M 0.00102818 1.999394 L 76.807243 1.999787 " stroke="var(--frame, #f16800)" stroke-width="4" stroke-opacity="1" stroke-miterlimit="4"/><path stroke-linecap="butt" transform="matrix(0, -0.586954, 0.58564, 0, 77.40897, 83.173303)" fill="none" stroke-linejoin="miter" d="M 0.00243286 2.003042 L 9.106631 2.003042 " stroke="var(--frame, #f16800)" stroke-width="4" stroke-opacity="1" stroke-miterlimit="4"/><path stroke-linecap="butt" transform="matrix(0, -0.586954, 0.58564, 0, 77.40897, 90.854264)" fill="none" stroke-linejoin="miter" d="M -0.00205236 2.003042 L 9.108801 2.003042 " stroke="var(--frame, #f16800)" stroke-width="4" stroke-opacity="1" stroke-miterlimit="4"/><path stroke-linecap="butt" transform="matrix(0, -0.586954, 0.58564, 0, 77.40897, 98.535225)" fill="none" stroke-linejoin="miter" d="M 0.000117525 2.003042 L 9.110971 2.003042 " stroke="var(--frame, #f16800)" stroke-width="4" stroke-opacity="1" stroke-miterlimit="4"/><path stroke-linecap="butt" transform="matrix(0, -0.586954, 0.58564, 0, 219.885077, 83.173303)" fill="none" stroke-linejoin="miter" d="M 0.00243286 1.997151 L 9.106631 1.997151 " stroke="var(--frame, #f16800)" stroke-width="4" stroke-opacity="1" stroke-miterlimit="4"/><path stroke-linecap="butt" transform="matrix(0, -0.586954, 0.58564, 0, 219.885077, 90.854264)" fill="none" stroke-linejoin="miter" d="M -0.00205236 1.997151 L 9.108801 1.997151 " stroke="var(--frame, #f16800)" stroke-width="4" stroke-opacity="1" stroke-miterlimit="4"/><path stroke-linecap="butt" transform="matrix(0, -0.586954, 0.58564, 0, 219.885077, 98.535225)" fill="none" stroke-linejoin="miter" d="M 0.000117525 1.997151 L 9.110971 1.997151 " stroke="var(--frame, #f16800)" stroke-width="4" stroke-opacity="1" stroke-miterlimit="4"/><path stroke-linecap="butt" transform="matrix(0, -0.586954, 0.58564, 0, 77.40897, 203.703583)" fill="none" stroke-linejoin="miter" d="M 0.000779539 2.003042 L 9.111633 2.003042 " stroke="var(--frame, #f16800)" stroke-width="4" stroke-opacity="1" stroke-miterlimit="4"/><path stroke-linecap="butt" transform="matrix(0, -0.586954, 0.58564, 0, 77.40897, 211.398018)" fill="none" stroke-linejoin="miter" d="M -0.000715091 2.003042 L 9.110138 2.003042 " stroke="var(--frame, #f16800)" stroke-width="4" stroke-opacity="1" stroke-miterlimit="4"/><path stroke-linecap="butt" transform="matrix(0, -0.586954, 0.58564, 0, 77.40897, 219.092451)" fill="none" stroke-linejoin="miter" d="M -0.0022138 2.003042 L 9.108639 2.003042 " stroke="var(--frame, #f16800)" stroke-width="4" stroke-opacity="1" stroke-miterlimit="4"/><path stroke-linecap="butt" transform="matrix(0, -0.586954, 0.58564, 0, 219.876061, 203.703583)" fill="none" stroke-linejoin="miter" d="M 0.000779539 1.999206 L 9.111633 1.999206 " stroke="var(--frame, #f16800)" stroke-width="4" stroke-opacity="1" stroke-miterlimit="4"/><path stroke-linecap="butt" transform="matrix(0, -0.586954, 0.58564, 0, 219.885077, 211.398018)" fill="none" stroke-linejoin="miter" d="M -0.000715091 1.997151 L 9.110138 1.997151 " stroke="var(--frame, #f16800)" stroke-width="4" stroke-opacity="1" stroke-miterlimit="4"/><path stroke-linecap="butt" transform="matrix(0, -0.586954, 0.58564, 0, 219.894091, 219.092451)" fill="none" stroke-linejoin="miter" d="M -0.0022138 1.9951 L 9.108639 1.9951 " stroke="var(--frame, #f16800)" stroke-width="4" stroke-opacity="1" stroke-miterlimit="4"/><path stroke-linecap="butt" transform="matrix(0.523042, -0.264031, 0.26344, 0.524217, 79.020673, 176.377881)" fill="none" stroke-linejoin="miter" d="M -0.000624936 1.998668 L 19.91055 1.997442 " stroke="var(--frame, #f16800)" stroke-width="4" stroke-opacity="1" stroke-miterlimit="4"/><path stroke-linecap="butt" transform="matrix(0.523042, -0.264031, 0.26344, 0.524217, 209.160045, 143.585311)" fill="none" stroke-linejoin="miter" d="M 0.00159125 1.999024 L 19.909772 2.003742 " stroke="var(--frame, #f16800)" stroke-width="4" stroke-opacity="1" stroke-miterlimit="4"/><path stroke-linecap="butt" transform="matrix(-0.544542, -0.216002, 0.215518, -0.545765, 219.581895, 177.44255)" fill="none" stroke-linejoin="miter" d="M 0.0040336 2.004569 L 19.908544 1.999933 " stroke="var(--frame, #f16800)" stroke-width="4" stroke-opacity="1" stroke-miterlimit="4"/><path stroke-linecap="butt" transform="matrix(-0.544542, -0.216002, 0.215518, -0.545765, 89.30569, 145.21639)" fill="none" stroke-linejoin="miter" d="M -0.00255803 2.000757 L 19.910604 1.999855 " stroke="var(--frame, #f16800)" stroke-width="4" stroke-opacity="1" stroke-miterlimit="4"/><path stroke-linecap="butt" transform="matrix(-0.00496296, 0.586933, -0.585619, -0.0049741, 84.902079, 141.830258)" fill="none" stroke-linejoin="miter" d="M 0.0000104236 2.000638 L 57.30929 2.001889 " stroke="var(--frame, #f16800)" stroke-width="4" stroke-opacity="1" stroke-miterlimit="4"/><path stroke-linecap="butt" transform="matrix(-0.00496296, 0.586933, -0.585619, -0.0049741, 217.112231, 141.82032)" fill="none" stroke-linejoin="miter" d="M 0.00362013 1.999266 L 57.306245 2.000574 " stroke="var(--frame, #f16800)" stroke-width="4" stroke-opacity="1" stroke-miterlimit="4"/><path stroke-linecap="butt" transform="matrix(-0.548288, 0.206261, -0.205799, -0.549519, 125.236393, 37.742278)" fill="none" stroke-linejoin="miter" d="M -0.000643876 2.004515 L 74.187882 1.999987 " stroke="var(--frame, #f16800)" stroke-width="4" stroke-opacity="1" stroke-miterlimit="4"/><path stroke-linecap="butt" transform="matrix(0.543546, 0.218507, -0.218017, 0.544766, 176.247008, 35.417548)" fill="none" stroke-linejoin="miter" d="M 0.00288309 2.000187 L 75.413883 2.00508 " stroke="var(--frame, #f16800)" stroke-width="4" stroke-opacity="1" stroke-miterlimit="4"/><path stroke-linecap="butt" transform="matrix(-0.318703, 0.49243, -0.491327, -0.319418, 87.224785, 52.131994)" fill="none" stroke-linejoin="miter" d="M 0.75306 3.848826 C 6.838484 1.380248 12.924942 1.383574 19.008805 3.85321 " stroke="var(--frame, #f16800)" stroke-width="4" stroke-opacity="1" stroke-miterlimit="4"/><path stroke-linecap="butt" transform="matrix(-0.256893, -0.52747, 0.526288, -0.25747, 218.321256, 61.57893)" fill="none" stroke-linejoin="miter" d="M 0.768474 3.587156 C 5.874791 1.470435 10.984534 1.470731 16.088798 3.59112 " stroke="var(--frame, #f16800)" stroke-width="4" stroke-opacity="1" stroke-miterlimit="4"/><path stroke-linecap="butt" transform="matrix(-0.564349, -0.156824, 0.156473, -0.565616, 165.462871, 35.722435)" fill="none" stroke-linejoin="miter" d="M 0.00453253 2.001145 L 13.764077 1.998355 " stroke="var(--frame, #f16800)" stroke-width="4" stroke-opacity="1" stroke-miterlimit="4"/><path stroke-linecap="butt" transform="matrix(-0.561717, 0.166044, -0.165672, -0.562978, 142.989773, 33.850799)" fill="none" stroke-linejoin="miter" d="M -0.00388456 2.002739 L 13.368068 2.005559 " stroke="var(--frame, #f16800)" stroke-width="4" stroke-opacity="1" stroke-miterlimit="4"/><path stroke-linecap="butt" transform="matrix(-0.265395, 0.523225, -0.522052, -0.265991, 130.496437, 27.779841)" fill="none" stroke-linejoin="miter" d="M 0.0026368 1.99714 L 19.080668 2.003255 " stroke="var(--frame, #f16800)" stroke-width="4" stroke-opacity="1" stroke-miterlimit="4"/><path stroke-linecap="butt" transform="matrix(0.368272, 0.456378, -0.455356, 0.369099, 130.367832, 26.508524)" fill="none" stroke-linejoin="miter" d="M 0.00424747 2.00363 L 17.321892 2.000777 " stroke="var(--frame, #f16800)" stroke-width="4" stroke-opacity="1" stroke-miterlimit="4"/><path stroke-linecap="butt" transform="matrix(-0.302229, -0.502755, 0.501628, -0.302908, 175.788685, 38.443731)" fill="none" stroke-linejoin="miter" d="M -0.000277263 1.994093 L 21.201397 1.99712 " stroke="var(--frame, #f16800)" stroke-width="4" stroke-opacity="1" stroke-miterlimit="4"/><path stroke-linecap="butt" transform="matrix(0.359938, -0.463009, 0.461972, 0.360746, 163.671872, 34.030329)" fill="none" stroke-linejoin="miter" d="M -0.000870052 2.004663 L 16.717379 2.000532 " stroke="var(--frame, #f16800)" stroke-width="4" stroke-opacity="1" stroke-miterlimit="4"/><g clip-path="url(#721e6998c0)"><path stroke-linecap="butt" transform="matrix(0.243645, -0.533747, 0.532551, 0.244192, 141.595898, 32.523791)" fill="none" stroke-linejoin="miter" d="M 0.00010703 1.998365 L 32.980509 2.005039 " stroke="var(--frame, #f16800)" stroke-width="4" stroke-opacity="1" stroke-miterlimit="4"/></g><g clip-path="url(#3f2dbbbbd3)"><path stroke-linecap="butt" transform="matrix(-0.232014, -0.538927, 0.53772, -0.232535, 157.071244, 33.185169)" fill="none" stroke-linejoin="miter" d="M -0.00254262 1.994899 L 32.118755 2.001166 " stroke="var(--frame, #f16800)" stroke-width="4" stroke-opacity="1" stroke-miterlimit="4"/></g><path stroke-linecap="butt" transform="matrix(0, -0.586954, 0.58564, 0, 72.308794, 240.492479)" fill="none" stroke-linejoin="miter" d="M 0.000495863 2.000676 L 310.514877 2.000676 " stroke="var(--frame, #f16800)" stroke-width="4" stroke-opacity="1" stroke-miterlimit="4"/><path stroke-linecap="butt" transform="matrix(0, -0.586954, 0.58564, 0, 225.165842, 242.05409)" fill="none" stroke-linejoin="miter" d="M -0.00101865 2.004649 L 310.513362 2.004649 " stroke="var(--frame, #f16800)" stroke-width="4" stroke-opacity="1" stroke-miterlimit="4"/><g clip-path="url(#a0eb6b025d)"><path stroke-linecap="butt" transform="matrix(-0.475312, -0.342897, 0.342129, -0.476379, 138.838411, 305.417456)" fill="none" stroke-linejoin="miter" d="M 0.757206 25.980498 C 78.813365 -5.990037 130.609041 -5.995882 156.150483 25.983065 " stroke="var(--frame, #f16800)" stroke-width="4" stroke-opacity="1" stroke-miterlimit="4"/></g><g clip-path="url(#686494bb4b)"><path stroke-linecap="butt" transform="matrix(0.472412, -0.346899, 0.346122, 0.473473, 155.30982, 292.219737)" fill="none" stroke-linejoin="miter" d="M 0.847976 1.807233 C 70.97027 34.587717 120.359191 34.58804 149.029434 1.810716 " stroke="var(--frame, #f16800)" stroke-width="4" stroke-opacity="1" stroke-miterlimit="4"/></g><g clip-path="url(#e151f10fda)"><path stroke-linecap="butt" transform="matrix(-0.541999, 0.222334, -0.221835, -0.543216, 151.142617, 20.131628)" fill="none" stroke-linejoin="miter" d="M 0.000651768 1.997178 L 129.329305 2.004721 " stroke="var(--frame, #f16800)" stroke-width="4" stroke-opacity="1" stroke-miterlimit="4"/></g><g clip-path="url(#8d4528caef)"><path stroke-linecap="butt" transform="matrix(-0.54085, -0.225126, 0.224622, -0.542064, 218.987223, 48.838655)" fill="none" stroke-linejoin="miter" d="M -0.00122375 2.001654 L 127.971924 1.998869 " stroke="var(--frame, #f16800)" stroke-width="4" stroke-opacity="1" stroke-miterlimit="4"/></g><path stroke-linecap="butt" transform="matrix(-0.336534, 0.480366, -0.47929, -0.337289, 82.867642, 47.433976)" fill="none" stroke-linejoin="miter" d="M 1.062237 1.757173 C 8.648267 6.504137 16.76315 6.503171 25.406887 1.754275 " stroke="var(--frame, #f16800)" stroke-width="4" stroke-opacity="1" stroke-miterlimit="4"/><path stroke-linecap="butt" transform="matrix(-0.300876, -0.503569, 0.502441, -0.301552, 225.795451, 61.103044)" fill="none" stroke-linejoin="miter" d="M 1.043365 1.708293 C 10.136569 7.26241 18.531565 7.259443 26.215788 1.707416 " stroke="var(--frame, #f16800)" stroke-width="4" stroke-opacity="1" stroke-miterlimit="4"/><path stroke-linecap="butt" transform="matrix(0.578712, 0.0900124, -0.0898108, 0.580011, 95.840161, 260.705821)" fill="none" stroke-linejoin="miter" d="M -0.000295305 2.002362 C 15.935995 2.000863 31.865695 2.000386 47.795394 1.999909 " stroke="var(--frame, #f16800)" stroke-width="4" stroke-opacity="1" stroke-miterlimit="4"/><g clip-path="url(#0262bf7f5b)"><g clip-path="url(#ff296698a7)"><g clip-path="url(#dc32d14e33)"></g></g></g><g clip-path="url(#941d7e98e6)"><g clip-path="url(#fec8ea67e4)"><g clip-path="url(#84dbf39147)"></g></g></g><g clip-path="url(#91b1f17132)"><g clip-path="url(#63c751c5bb)"><g clip-path="url(#01d37cd970)"></g></g></g><g clip-path="url(#2ec22623b1)"><g clip-path="url(#8a70d64b2e)"><g clip-path="url(#823f4ba510)"></g></g></g><g clip-path="url(#e138a583ef)"><g clip-path="url(#708c6ccb82)"><g clip-path="url(#f2acf54987)"></g></g></g><g clip-path="url(#8e9f42523a)"><g clip-path="url(#d5aaa50d5e)"><g clip-path="url(#c0db540ec6)"></g></g></g><g clip-path="url(#22fdf37bfc)"><g clip-path="url(#2ade944497)"><g clip-path="url(#c551f7868b)"></g></g></g><g clip-path="url(#fbcae73ea1)"><g clip-path="url(#850771f41b)"><g clip-path="url(#92b964148e)"></g></g></g><g clip-path="url(#f4a7632789)"><g clip-path="url(#59e8087229)"><g clip-path="url(#aba887fe56)"></g></g></g><g clip-path="url(#1107ce2d91)"><g clip-path="url(#e6b6f61a77)"><g clip-path="url(#b7a6d39909)"></g></g></g><g clip-path="url(#bd7eb1785f)"><g clip-path="url(#7eb836db0f)"><g clip-path="url(#f815e9f54e)"></g></g></g><g clip-path="url(#d1b18e29d6)"><g clip-path="url(#e020858ce3)"><g clip-path="url(#0371ea5d5e)"></g></g></g><g clip-path="url(#2930fdd5d9)"><g clip-path="url(#40b4afab72)"><g clip-path="url(#c2b04a5268)"></g></g></g><path stroke-linecap="butt" transform="matrix(0.58564, 0, 0, 0.586954, 98.021015, 173.419925)" fill="none" stroke-linejoin="miter" d="M -0.00253381 0.502455 L 173.118817 0.502455 " stroke="var(--frame, #f16800)" stroke-width="1" stroke-opacity="1" stroke-miterlimit="4"/><g clip-path="url(#0b8184d2f8)"><g clip-path="url(#7925c5a6aa)"><g clip-path="url(#2b1fe8b14b)"></g></g></g></svg>